<?xml version="1.0" encoding="UTF-8"?>
<!-- Created with Inkscape (http://www.inkscape.org/) -->
<svg width="781.76" height="168.38" version="1.1" viewBox="0 0 781.76 168.38" xml:space="preserve" xmlns="http://www.w3.org/2000/svg"><defs><clipPath id="clipPath61"><path d="m0 500h1024v-500h-1024z"/></clipPath><linearGradient id="linearGradient103" x2="1" gradientTransform="matrix(0 177.2 177.2 0 198.01 161.2)" gradientUnits="userSpaceOnUse"><stop stop-color="#24d3b1" offset="0"/><stop stop-color="#24d3b1" offset=".19449"/><stop stop-color="#7652fd" offset=".67179"/><stop stop-color="#7652fd" offset="1"/></linearGradient></defs><g transform="matrix(1.3333 0 0 -1.3333 -435.33 420.27)"><g transform="translate(326.5 312.75)"><path d="m0 0h25.485l49.991-87.893h0.327v87.893h22.382v-120.89h-24.996l-50.481 87.893h-0.326v-87.893h-22.382z" fill="#fff"/></g><path d="m444.61 282.53h21.728v-90.67h-21.728zm0 30.224h21.728v-19.931h-21.728z" fill="#fff"/><g transform="translate(489.21 263.25)"><path d="m0 0h-10.618v19.277h10.618v30.224h21.729v-30.224h13.069v-19.277h-13.069v-71.393h-21.729z" fill="#fff"/></g><g clip-path="url(#clipPath61)"><g transform="translate(601.6 244.95)"><path d="m0 0c-0.655 3.595-1.744 6.698-3.269 9.313-1.526 2.613-3.377 4.763-5.553 6.453-2.18 1.687-4.603 2.94-7.271 3.757-2.67 0.817-5.473 1.226-8.413 1.226-2.181 0-4.55-0.302-7.107-0.899-2.56-0.6-5.038-1.662-7.433-3.186-2.396-1.526-4.602-3.622-6.616-6.289-2.017-2.671-3.513-6.127-4.493-10.375zm-49.502-17.48c0.218-1.527 0.924-3.349 2.125-5.473 1.196-2.123 2.83-4.166 4.899-6.126 2.07-1.96 4.602-3.622 7.598-4.984 2.994-1.362 6.453-2.041 10.374-2.041 9.693 0 16.663 3.865 20.911 11.599h22.871c-1.306-4.141-3.323-8.087-6.045-11.845-2.722-3.756-5.99-7.105-9.8-10.046-3.815-2.941-8.088-5.284-12.826-7.025s-9.776-2.614-15.111-2.614c-6.861 0-13.233 1.253-19.114 3.758-5.882 2.504-10.946 5.934-15.193 10.292-4.249 4.354-7.572 9.447-9.965 15.275-2.398 5.824-3.596 12.061-3.596 18.705 0 6.426 1.145 12.58 3.432 18.461s5.498 11.053 9.638 15.521c4.138 4.463 9.149 8.03 15.031 10.7 5.881 2.667 12.416 4.003 19.603 4.003 7.405 0 14.022-1.389 19.85-4.166 5.825-2.778 10.726-6.4 14.704-10.865 3.974-4.467 7.024-9.531 9.147-15.193 2.124-5.664 3.186-11.328 3.186-16.99 0-2.181-0.138-4.166-0.407-5.963-0.274-1.797-0.574-3.459-0.899-4.983z" fill="#fff"/></g><g transform="translate(656.5 252.14)"><path d="m0 0c0-5.555 1.033-10.864 3.104-15.929 2.067-5.063 4.955-9.531 8.659-13.396 3.701-3.866 8.03-6.917 12.987-9.148 4.955-2.233 10.317-3.349 16.092-3.349 5.772 0 11.135 1.116 16.092 3.349 4.954 2.231 9.284 5.282 12.987 9.148 3.702 3.865 6.59 8.333 8.659 13.396 2.067 5.065 3.104 10.374 3.104 15.929 0 5.771-1.062 11.216-3.185 16.337-2.125 5.118-5.04 9.582-8.741 13.396-3.703 3.811-8.033 6.834-12.987 9.067-4.958 2.231-10.268 3.349-15.929 3.349-5.664 0-10.974-1.118-15.929-3.349-4.957-2.233-9.286-5.256-12.987-9.067-3.703-3.814-6.616-8.278-8.741-13.396-2.123-5.121-3.185-10.566-3.185-16.337m-22.382-0.164c0 8.93 1.687 17.262 5.065 24.997 3.375 7.731 7.948 14.43 13.722 20.094 5.772 5.661 12.47 10.1 20.095 13.314 7.622 3.212 15.737 4.82 24.342 4.82 8.602 0 16.718-1.608 24.342-4.82 7.622-3.214 14.321-7.653 20.094-13.314 5.772-5.664 10.346-12.363 13.723-20.094 3.375-7.735 5.064-16.067 5.064-24.997 0-8.714-1.661-16.855-4.982-24.423-3.324-7.571-7.842-14.187-13.56-19.849-5.718-5.665-12.416-10.129-20.094-13.396-7.678-3.268-15.874-4.901-24.587-4.901-8.715 0-16.909 1.633-24.587 4.901-7.679 3.267-14.376 7.731-20.095 13.396-5.718 5.662-10.238 12.278-13.559 19.849-3.324 7.568-4.983 15.709-4.983 24.423" fill="#fff"/></g><g transform="translate(854.82 282.53)"><path d="m0 0v-90.67h-19.931v9.149h-0.327c-0.873-1.2-1.935-2.506-3.185-3.92-1.254-1.417-2.806-2.725-4.657-3.922-1.852-1.2-4.031-2.205-6.535-3.022-2.507-0.817-5.501-1.225-8.985-1.225-4.14 0-7.842 0.464-11.109 1.388-3.267 0.927-6.125 2.096-8.577 3.513-2.45 1.414-4.575 2.966-6.371 4.656-1.798 1.687-3.242 3.293-4.33 4.82-1.633 2.393-2.915 5.063-3.839 8.004-0.925 2.941-1.608 5.854-2.042 8.741-0.436 2.884-0.681 5.661-0.735 8.332-0.056 2.667-0.081 4.926-0.081 6.779v47.377h21.727v-46.233c0-1.854 0.107-4.33 0.328-7.433 0.215-3.105 0.898-6.127 2.042-9.067 1.142-2.942 2.994-5.501 5.553-7.679 2.558-2.18 6.235-3.268 11.028-3.268 3.375 0 6.234 0.736 8.578 2.206 2.34 1.47 4.247 3.485 5.718 6.044 1.469 2.559 2.503 5.474 3.103 8.741 0.597 3.268 0.898 6.698 0.898 10.293v46.396z" fill="#fff"/></g><g transform="translate(878.02 263.25)"><path d="m0 0h-10.618v19.277h10.618v30.224h21.729v-30.224h13.069v-19.277h-13.069v-71.393h-21.729z" fill="#fff"/></g></g><path d="m170.4 334.01c-2.319-0.76-4.611-1.619-6.875-2.575-10.55-4.464-20.026-10.852-28.162-18.988-2.844-2.844-5.47-5.855-7.879-9.015-4.483-5.881-8.205-12.284-11.109-19.148-4.62-10.924-6.963-22.528-6.963-34.488 0-11.961 2.343-23.563 6.963-34.488 4.463-10.55 10.852-20.026 18.988-28.162s17.612-14.524 28.162-18.987c10.925-4.621 22.528-6.964 34.488-6.964 11.961 0 23.564 2.343 34.488 6.964 10.551 4.463 20.026 10.851 28.162 18.987 8.137 8.136 14.525 17.612 18.988 28.162 4.62 10.925 6.963 22.527 6.963 34.488 0 11.96-2.343 23.564-6.963 34.488-4.463 10.551-10.851 20.026-18.988 28.163-0.211 0.212-0.428 0.418-0.642 0.627-3.308 3.243-6.829 6.203-10.552 8.865-5.274 3.77-10.945 6.948-16.968 9.496-2.038 0.862-4.1 1.645-6.184 2.348-5.327 1.797-10.793 3.072-16.366 3.82-3.93 0.528-7.914 0.795-11.938 0.795-9.482 0-18.74-1.474-27.613-4.388m25.99-2.651c0 0.915 0.741 1.658 1.658 1.658 0.916 0 1.658-0.743 1.658-1.658v-76.35l45.157 61.97c0.539 0.74 1.577 0.903 2.316 0.363 0.741-0.539 0.903-1.576 0.364-2.316l-46.497-63.844 74.234 34.754c0.455-0.972 0.897-1.951 1.317-2.943 4.447-10.514 6.701-21.683 6.701-33.197s-2.254-22.683-6.701-33.195c-0.636-1.502-1.316-2.978-2.031-4.434l-76.62 36.188-76.586-35.985c-0.678 1.39-1.324 2.799-1.93 4.231-4.447 10.512-6.701 21.681-6.701 33.195s2.254 22.683 6.701 33.197c0.576 1.362 1.188 2.704 1.831 4.027l73.876-35.861-46.653 63.867c-0.539 0.74-0.377 1.777 0.363 2.316s1.778 0.377 2.317-0.363l45.226-62.064zm-29.596-101.35 31.179 14.579 30.896-14.495-31.129-14.576zm34.856-16.323 31.111 14.569 30.773-14.544-30.968-14.502zm-69.66 4e-3 30.897 14.486 30.943-14.49-30.916-14.477zm104.49-16.312 30.951 14.494 5.621-2.658c-3.912-7.228-8.845-13.84-14.729-19.724-0.536-0.535-1.078-1.06-1.624-1.579zm-98.768-7.888c-5.938 5.937-10.906 12.617-14.835 19.925l5.21 2.444 30.922-14.481-19.854-9.296c-0.486 0.463-0.967 0.933-1.443 1.408m29.116 7.888 30.916 14.477 30.917-14.477-30.917-14.477zm34.826-16.307 30.916 14.477 21.472-10.055c-6.815-5.952-14.471-10.746-22.829-14.281-1.535-0.65-3.085-1.251-4.648-1.806zm-36.833-9.859c-8.436 3.568-16.154 8.419-23.018 14.448l21.115 9.888 30.916-14.477-24.674-11.555c-1.458 0.525-2.904 1.089-4.339 1.696m8.936-3.205 23.987 11.232 24.197-11.33c-7.725-2.258-15.737-3.398-23.924-3.398-8.305 0-16.431 1.173-24.26 3.496" fill="url(#linearGradient103)"/></g></svg>
