<?xml version="1.0" encoding="UTF-8"?>
<!-- Created with Inkscape (http://www.inkscape.org/) -->
<svg width="236.27" height="236.27" version="1.1" viewBox="0 0 236.27 236.27" xml:space="preserve" xmlns="http://www.w3.org/2000/svg"><defs><linearGradient id="linearGradient96" x2="1" gradientTransform="matrix(0 177.2 177.2 0 198.01 161.2)" gradientUnits="userSpaceOnUse"><stop stop-color="#24d3b1" offset="0"/><stop stop-color="#24d3b1" offset=".19449"/><stop stop-color="#7652fd" offset=".67179"/><stop stop-color="#7652fd" offset="1"/></linearGradient></defs><g transform="matrix(1.3333 0 0 -1.3333 -145.88 451.2)"><g transform="translate(326.5 312.75)"><path d="m0 0h25.485l49.991-87.893h0.327v87.893h22.382v-120.89h-24.996l-50.481 87.893h-0.326v-87.893h-22.382z" fill="#fff"/></g><path d="m444.61 282.53h21.728v-90.67h-21.728zm0 30.224h21.728v-19.931h-21.728z" fill="#fff"/><g transform="translate(489.21 263.25)"><path d="m0 0h-10.618v19.277h10.618v30.224h21.729v-30.224h13.069v-19.277h-13.069v-71.393h-21.729z" fill="#fff"/></g><path d="m170.4 334.01c-2.319-0.76-4.611-1.619-6.875-2.575-10.55-4.464-20.026-10.852-28.162-18.988-2.844-2.844-5.47-5.855-7.879-9.015-4.483-5.881-8.205-12.284-11.109-19.148-4.62-10.924-6.963-22.528-6.963-34.488 0-11.961 2.343-23.563 6.963-34.488 4.463-10.55 10.852-20.026 18.988-28.162s17.612-14.524 28.162-18.987c10.925-4.621 22.528-6.964 34.488-6.964 11.961 0 23.564 2.343 34.488 6.964 10.551 4.463 20.026 10.851 28.162 18.987 8.137 8.136 14.525 17.612 18.988 28.162 4.62 10.925 6.963 22.527 6.963 34.488 0 11.96-2.343 23.564-6.963 34.488-4.463 10.551-10.851 20.026-18.988 28.163-0.211 0.212-0.428 0.418-0.642 0.627-3.308 3.243-6.829 6.203-10.552 8.865-5.274 3.77-10.945 6.948-16.968 9.496-2.038 0.862-4.1 1.645-6.184 2.348-5.327 1.797-10.793 3.072-16.366 3.82-3.93 0.528-7.914 0.795-11.938 0.795-9.482 0-18.74-1.474-27.613-4.388m25.99-2.651c0 0.915 0.741 1.658 1.658 1.658 0.916 0 1.658-0.743 1.658-1.658v-76.35l45.157 61.97c0.539 0.74 1.577 0.903 2.316 0.363 0.741-0.539 0.903-1.576 0.364-2.316l-46.497-63.844 74.234 34.754c0.455-0.972 0.897-1.951 1.317-2.943 4.447-10.514 6.701-21.683 6.701-33.197s-2.254-22.683-6.701-33.195c-0.636-1.502-1.316-2.978-2.031-4.434l-76.62 36.188-76.586-35.985c-0.678 1.39-1.324 2.799-1.93 4.231-4.447 10.512-6.701 21.681-6.701 33.195s2.254 22.683 6.701 33.197c0.576 1.362 1.188 2.704 1.831 4.027l73.876-35.861-46.653 63.867c-0.539 0.74-0.377 1.777 0.363 2.316s1.778 0.377 2.317-0.363l45.226-62.064zm-29.596-101.35 31.179 14.579 30.896-14.495-31.129-14.576zm34.856-16.323 31.111 14.569 30.773-14.544-30.968-14.502zm-69.66 4e-3 30.897 14.486 30.943-14.49-30.916-14.477zm104.49-16.312 30.951 14.494 5.621-2.658c-3.912-7.228-8.845-13.84-14.729-19.724-0.536-0.535-1.078-1.06-1.624-1.579zm-98.768-7.888c-5.938 5.937-10.906 12.617-14.835 19.925l5.21 2.444 30.922-14.481-19.854-9.296c-0.486 0.463-0.967 0.933-1.443 1.408m29.116 7.888 30.916 14.477 30.917-14.477-30.917-14.477zm34.826-16.307 30.916 14.477 21.472-10.055c-6.815-5.952-14.471-10.746-22.829-14.281-1.535-0.65-3.085-1.251-4.648-1.806zm-36.833-9.859c-8.436 3.568-16.154 8.419-23.018 14.448l21.115 9.888 30.916-14.477-24.674-11.555c-1.458 0.525-2.904 1.089-4.339 1.696m8.936-3.205 23.987 11.232 24.197-11.33c-7.725-2.258-15.737-3.398-23.924-3.398-8.305 0-16.431 1.173-24.26 3.496" fill="url(#linearGradient96)"/></g></svg>
